<svg width="21" height="23" viewBox="0 0 21 23" fill="none" xmlns="http://www.w3.org/2000/svg">
<g id="account / 24 / Outline">
<path id="Vector" d="M13.7463 12.1804C14.6041 11.4412 15.2302 10.4275 15.5376 9.28042C15.8449 8.13332 15.8182 6.90981 15.4611 5.78013C15.1039 4.65045 14.4342 3.67077 13.5451 2.97738C12.6559 2.28399 11.5915 1.91138 10.5 1.91138C9.40848 1.91138 8.3441 2.28399 7.45494 2.97738C6.56578 3.67077 5.89605 4.65045 5.53894 5.78013C5.18182 6.90981 5.15507 8.13332 5.46242 9.28042C5.76976 10.4275 6.39591 11.4412 7.25375 12.1804C5.78382 12.8254 4.50125 13.8952 3.54278 15.2757C2.58431 16.6563 1.98587 18.2958 1.81125 20.0196C1.79861 20.1454 1.80873 20.2728 1.84102 20.3943C1.87332 20.5159 1.92716 20.6293 1.99947 20.7281C2.14552 20.9276 2.35794 21.0554 2.59 21.0833C2.82207 21.1113 3.05477 21.0371 3.23691 20.8772C3.41906 20.7172 3.53572 20.4846 3.56125 20.2304C3.75339 18.357 4.56898 16.6269 5.85219 15.3705C7.13541 14.1141 8.79629 13.4195 10.5175 13.4195C12.2387 13.4195 13.8996 14.1141 15.1828 15.3705C16.466 16.6269 17.2816 18.357 17.4738 20.2304C17.4975 20.4659 17.6001 20.6834 17.7617 20.8409C17.9233 20.9984 18.1324 21.0847 18.3488 21.0833H18.445C18.6744 21.0544 18.884 20.9274 19.0282 20.7299C19.1725 20.5325 19.2396 20.2806 19.215 20.0291C19.0396 18.3005 18.4379 16.6568 17.4745 15.2741C16.5111 13.8914 15.2223 12.822 13.7463 12.1804ZM10.5 11.5C9.80777 11.5 9.13108 11.2752 8.55551 10.8539C7.97993 10.4327 7.53133 9.83405 7.26642 9.1336C7.00152 8.43315 6.9322 7.66239 7.06725 6.9188C7.2023 6.1752 7.53564 5.49217 8.02513 4.95607C8.51461 4.41997 9.13825 4.05488 9.81719 3.90697C10.4961 3.75906 11.1999 3.83497 11.8394 4.12511C12.4789 4.41524 13.0256 4.90657 13.4101 5.53696C13.7947 6.16735 14 6.90848 14 7.66664C14 8.68331 13.6313 9.65833 12.9749 10.3772C12.3185 11.0961 11.4283 11.5 10.5 11.5Z" fill="#FFFFFF"/>
</g>
</svg>
