<svg width="20" height="19" viewBox="0 0 20 19" fill="none" xmlns="http://www.w3.org/2000/svg">
<path id="Vector" d="M19 7.96923H18V6.95385C18 6.68455 17.8946 6.42629 17.7071 6.23586C17.5196 6.04544 17.2652 5.93846 17 5.93846C16.7348 5.93846 16.4804 6.04544 16.2929 6.23586C16.1054 6.42629 16 6.68455 16 6.95385V7.96923H15C14.7348 7.96923 14.4804 8.07621 14.2929 8.26663C14.1054 8.45705 14 8.71532 14 8.98462C14 9.25391 14.1054 9.51218 14.2929 9.7026C14.4804 9.89302 14.7348 10 15 10H16V11.0154C16 11.2847 16.1054 11.543 16.2929 11.7334C16.4804 11.9238 16.7348 12.0308 17 12.0308C17.2652 12.0308 17.5196 11.9238 17.7071 11.7334C17.8946 11.543 18 11.2847 18 11.0154V10H19C19.2652 10 19.5196 9.89302 19.7071 9.7026C19.8946 9.51218 20 9.25391 20 8.98462C20 8.71532 19.8946 8.45705 19.7071 8.26663C19.5196 8.07621 19.2652 7.96923 19 7.96923ZM11.3 9.7157C11.8336 9.24672 12.2616 8.66669 12.5549 8.01495C12.8482 7.36321 13 6.65503 13 5.93846C13 4.59198 12.4732 3.30065 11.5355 2.34854C10.5979 1.39643 9.32608 0.861542 8 0.861542C6.67392 0.861542 5.40215 1.39643 4.46447 2.34854C3.52678 3.30065 3 4.59198 3 5.93846C2.99999 6.65503 3.1518 7.36321 3.44513 8.01495C3.73845 8.66669 4.16642 9.24672 4.7 9.7157C3.30014 10.3593 2.11247 11.3987 1.27898 12.7096C0.445495 14.0205 0.00147185 15.5474 0 17.1077C0 17.377 0.105357 17.6353 0.292893 17.8257C0.48043 18.0161 0.734784 18.1231 1 18.1231C1.26522 18.1231 1.51957 18.0161 1.70711 17.8257C1.89464 17.6353 2 17.377 2 17.1077C2 15.4919 2.63214 13.9423 3.75736 12.7998C4.88258 11.6573 6.4087 11.0154 8 11.0154C9.5913 11.0154 11.1174 11.6573 12.2426 12.7998C13.3679 13.9423 14 15.4919 14 17.1077C14 17.377 14.1054 17.6353 14.2929 17.8257C14.4804 18.0161 14.7348 18.1231 15 18.1231C15.2652 18.1231 15.5196 18.0161 15.7071 17.8257C15.8946 17.6353 16 17.377 16 17.1077C15.9985 15.5474 15.5545 14.0205 14.721 12.7096C13.8875 11.3987 12.6999 10.3593 11.3 9.7157ZM8 8.98462C7.40666 8.98462 6.82664 8.80596 6.33329 8.47125C5.83994 8.13653 5.45542 7.66079 5.22836 7.10418C5.0013 6.54757 4.94189 5.93509 5.05764 5.34419C5.1734 4.75329 5.45912 4.21052 5.87868 3.78451C6.29824 3.3585 6.83279 3.06838 7.41473 2.95084C7.99667 2.83331 8.59987 2.89363 9.14805 3.12419C9.69623 3.35474 10.1648 3.74517 10.4944 4.24611C10.8241 4.74705 11 5.33599 11 5.93846C11 6.74635 10.6839 7.52116 10.1213 8.09242C9.55871 8.66369 8.79565 8.98462 8 8.98462Z" fill="black"/>
</svg>
