<svg width="27" height="19" viewBox="0 0 27 19" fill="none" xmlns="http://www.w3.org/2000/svg">
<path d="M21.9359 5.18696H5.74775L7.94219 2.9596C8.26005 2.63447 8.43862 2.1935 8.43862 1.7337C8.43862 1.27389 8.26005 0.832919 7.94219 0.507788C7.62432 0.182657 7.19321 3.42581e-09 6.74369 0C6.29416 -3.42581e-09 5.86305 0.182657 5.54519 0.507788L0.48111 5.68768C0.327431 5.85189 0.206965 6.04552 0.126625 6.25747C-0.0422083 6.67783 -0.0422083 7.14934 0.126625 7.56971C0.206965 7.78165 0.327431 7.97529 0.48111 8.13949L5.54519 13.3194C5.70211 13.4812 5.88881 13.6097 6.09451 13.6973C6.30021 13.785 6.52085 13.8301 6.74369 13.8301C6.96653 13.8301 7.18716 13.785 7.39286 13.6973C7.59856 13.6097 7.78526 13.4812 7.94219 13.3194C8.1004 13.1589 8.22598 12.9679 8.31168 12.7575C8.39738 12.5471 8.4415 12.3214 8.4415 12.0935C8.4415 11.8655 8.39738 11.6399 8.31168 11.4295C8.22598 11.2191 8.1004 11.0281 7.94219 10.8676L5.74775 8.64022H21.9359C22.3836 8.64022 22.813 8.82213 23.1295 9.14594C23.4461 9.46974 23.6239 9.90892 23.6239 10.3668V17.2734C23.6239 17.7313 23.8018 18.1705 24.1184 18.4943C24.4349 18.8181 24.8643 19 25.312 19C25.7597 19 26.189 18.8181 26.5056 18.4943C26.8222 18.1705 27 17.7313 27 17.2734V10.3668C27 8.99306 26.4665 7.67553 25.5168 6.70411C24.5671 5.73269 23.279 5.18696 21.9359 5.18696Z" fill="black"/>
</svg>
