<svg width="20" height="20" viewBox="0 0 20 20" fill="none" xmlns="http://www.w3.org/2000/svg">
<path id="Vector" d="M17 0H3C2.20462 0.000868196 1.44206 0.317218 0.879639 0.879639C0.317218 1.44206 0.000868196 2.20462 0 3V13C0.000868196 13.7954 0.317218 14.5579 0.879639 15.1204C1.44206 15.6828 2.20462 15.9991 3 16H14.5859L18.2929 19.707C18.4328 19.8469 18.6109 19.9421 18.8049 19.9807C18.9989 20.0193 19.2 19.9996 19.3827 19.9239C19.5654 19.8482 19.7216 19.72 19.8315 19.5556C19.9414 19.3911 20 19.1978 20 19V3C19.9991 2.20462 19.6828 1.44206 19.1204 0.879639C18.5579 0.317218 17.7954 0.000868196 17 0ZM6 9C5.80222 9 5.60888 8.94135 5.44443 8.83147C5.27998 8.72159 5.15181 8.56541 5.07612 8.38268C5.00043 8.19996 4.98063 7.99889 5.01921 7.80491C5.0578 7.61093 5.15304 7.43275 5.29289 7.29289C5.43275 7.15304 5.61093 7.0578 5.80491 7.01921C5.99889 6.98063 6.19996 7.00043 6.38268 7.07612C6.56541 7.15181 6.72159 7.27998 6.83147 7.44443C6.94135 7.60888 7 7.80222 7 8C7 8.26522 6.89464 8.51957 6.70711 8.70711C6.51957 8.89464 6.26522 9 6 9ZM10 9C9.80222 9 9.60888 8.94135 9.44443 8.83147C9.27998 8.72159 9.15181 8.56541 9.07612 8.38268C9.00043 8.19996 8.98063 7.99889 9.01921 7.80491C9.0578 7.61093 9.15304 7.43275 9.29289 7.29289C9.43275 7.15304 9.61093 7.0578 9.80491 7.01921C9.99889 6.98063 10.2 7.00043 10.3827 7.07612C10.5654 7.15181 10.7216 7.27998 10.8315 7.44443C10.9414 7.60888 11 7.80222 11 8C11 8.26522 10.8946 8.51957 10.7071 8.70711C10.5196 8.89464 10.2652 9 10 9ZM14 9C13.8022 9 13.6089 8.94135 13.4444 8.83147C13.28 8.72159 13.1518 8.56541 13.0761 8.38268C13.0004 8.19996 12.9806 7.99889 13.0192 7.80491C13.0578 7.61093 13.153 7.43275 13.2929 7.29289C13.4327 7.15304 13.6109 7.0578 13.8049 7.01921C13.9989 6.98063 14.2 7.00043 14.3827 7.07612C14.5654 7.15181 14.7216 7.27998 14.8315 7.44443C14.9414 7.60888 15 7.80222 15 8C15 8.26522 14.8946 8.51957 14.7071 8.70711C14.5196 8.89464 14.2652 9 14 9Z" fill="#435334"/>
</svg>
