<svg width="30" height="30" viewBox="0 0 30 30" fill="none" xmlns="http://www.w3.org/2000/svg">
<path d="M15 2.5C13.3585 2.5 11.733 2.82332 10.2164 3.45151C8.69987 4.07969 7.32188 5.00043 6.16115 6.16117C3.81695 8.50537 2.49999 11.6848 2.49999 15C2.48906 17.8864 3.48848 20.6857 5.32499 22.9125L2.82499 25.4125C2.65154 25.5883 2.53404 25.8115 2.48733 26.054C2.44061 26.2965 2.46676 26.5474 2.56249 26.775C2.66631 26.9999 2.83462 27.1889 3.04604 27.318C3.25747 27.4471 3.50249 27.5104 3.74999 27.5H15C18.3152 27.5 21.4946 26.183 23.8388 23.8388C26.183 21.4946 27.5 18.3152 27.5 15C27.5 11.6848 26.183 8.50537 23.8388 6.16117C21.4946 3.81696 18.3152 2.5 15 2.5ZM15 25H6.76249L7.92499 23.8375C8.1578 23.6033 8.28848 23.2865 8.28848 22.9562C8.28848 22.626 8.1578 22.3092 7.92499 22.075C6.28822 20.4401 5.26895 18.2882 5.04085 15.986C4.81274 13.6838 5.38991 11.3738 6.67402 9.4494C7.95813 7.52505 9.86972 6.10545 12.0831 5.43247C14.2965 4.75948 16.6748 4.87476 18.8128 5.75864C20.9507 6.64253 22.7161 8.24034 23.808 10.2799C24.9 12.3194 25.2511 14.6744 24.8014 16.9438C24.3517 19.2131 23.1291 21.2563 21.3419 22.7253C19.5547 24.1943 17.3134 24.9982 15 25ZM18.75 13.75H16.25V11.25C16.25 10.9185 16.1183 10.6005 15.8839 10.3661C15.6494 10.1317 15.3315 10 15 10C14.6685 10 14.3505 10.1317 14.1161 10.3661C13.8817 10.6005 13.75 10.9185 13.75 11.25V13.75H11.25C10.9185 13.75 10.6005 13.8817 10.3661 14.1161C10.1317 14.3505 9.99999 14.6685 9.99999 15C9.99999 15.3315 10.1317 15.6495 10.3661 15.8839C10.6005 16.1183 10.9185 16.25 11.25 16.25H13.75V18.75C13.75 19.0815 13.8817 19.3995 14.1161 19.6339C14.3505 19.8683 14.6685 20 15 20C15.3315 20 15.6494 19.8683 15.8839 19.6339C16.1183 19.3995 16.25 19.0815 16.25 18.75V16.25H18.75C19.0815 16.25 19.3994 16.1183 19.6339 15.8839C19.8683 15.6495 20 15.3315 20 15C20 14.6685 19.8683 14.3505 19.6339 14.1161C19.3994 13.8817 19.0815 13.75 18.75 13.75Z" fill="#435334"/>
</svg>
