<svg width="21" height="17" viewBox="0 0 21 17" fill="none" xmlns="http://www.w3.org/2000/svg">
<path id="Vector" d="M11.3 8.72C11.8336 8.25813 12.2616 7.68688 12.5549 7.04502C12.8482 6.40316 13 5.70571 13 5C13 3.67392 12.4732 2.40215 11.5355 1.46447C10.5979 0.526784 9.32608 0 8 0C6.67392 0 5.40215 0.526784 4.46447 1.46447C3.52678 2.40215 3 3.67392 3 5C2.99999 5.70571 3.1518 6.40316 3.44513 7.04502C3.73845 7.68688 4.16642 8.25813 4.7 8.72C3.30014 9.35388 2.11247 10.3775 1.27898 11.6685C0.445495 12.9596 0.00147185 14.4633 0 16C0 16.2652 0.105357 16.5196 0.292893 16.7071C0.48043 16.8946 0.734784 17 1 17C1.26522 17 1.51957 16.8946 1.70711 16.7071C1.89464 16.5196 2 16.2652 2 16C2 14.4087 2.63214 12.8826 3.75736 11.7574C4.88258 10.6321 6.4087 10 8 10C9.5913 10 11.1174 10.6321 12.2426 11.7574C13.3679 12.8826 14 14.4087 14 16C14 16.2652 14.1054 16.5196 14.2929 16.7071C14.4804 16.8946 14.7348 17 15 17C15.2652 17 15.5196 16.8946 15.7071 16.7071C15.8946 16.5196 16 16.2652 16 16C15.9985 14.4633 15.5545 12.9596 14.721 11.6685C13.8875 10.3775 12.6999 9.35388 11.3 8.72ZM8 8C7.40666 8 6.82664 7.82405 6.33329 7.49441C5.83994 7.16476 5.45542 6.69623 5.22836 6.14805C5.0013 5.59987 4.94189 4.99667 5.05764 4.41473C5.1734 3.83279 5.45912 3.29824 5.87868 2.87868C6.29824 2.45912 6.83279 2.1734 7.41473 2.05764C7.99667 1.94189 8.59987 2.0013 9.14805 2.22836C9.69623 2.45542 10.1648 2.83994 10.4944 3.33329C10.8241 3.82664 11 4.40666 11 5C11 5.79565 10.6839 6.55871 10.1213 7.12132C9.55871 7.68393 8.79565 8 8 8ZM18.91 8.5L19.71 7.71C19.8032 7.61676 19.8772 7.50607 19.9277 7.38425C19.9781 7.26243 20.0041 7.13186 20.0041 7C20.0041 6.86814 19.9781 6.73757 19.9277 6.61575C19.8772 6.49393 19.8032 6.38324 19.71 6.29C19.6168 6.19676 19.5061 6.1228 19.3842 6.07234C19.2624 6.02188 19.1319 5.99591 19 5.99591C18.8681 5.99591 18.7376 6.02188 18.6158 6.07234C18.4939 6.1228 18.3832 6.19676 18.29 6.29L17.5 7.09L16.71 6.29C16.6168 6.19676 16.5061 6.1228 16.3842 6.07234C16.2624 6.02188 16.1319 5.99591 16 5.99591C15.7337 5.99591 15.4783 6.1017 15.29 6.29C15.1968 6.38324 15.1228 6.49393 15.0723 6.61575C15.0219 6.73757 14.9959 6.86814 14.9959 7C14.9959 7.2663 15.1017 7.5217 15.29 7.71L16.09 8.5L15.29 9.29C15.1963 9.38296 15.1219 9.49356 15.0711 9.61542C15.0203 9.73728 14.9942 9.86799 14.9942 10C14.9942 10.132 15.0203 10.2627 15.0711 10.3846C15.1219 10.5064 15.1963 10.617 15.29 10.71C15.383 10.8037 15.4936 10.8781 15.6154 10.9289C15.7373 10.9797 15.868 11.0058 16 11.0058C16.132 11.0058 16.2627 10.9797 16.3846 10.9289C16.5064 10.8781 16.617 10.8037 16.71 10.71L17.5 9.91L18.29 10.71C18.383 10.8037 18.4936 10.8781 18.6154 10.9289C18.7373 10.9797 18.868 11.0058 19 11.0058C19.132 11.0058 19.2627 10.9797 19.3846 10.9289C19.5064 10.8781 19.617 10.8037 19.71 10.71C19.8037 10.617 19.8781 10.5064 19.9289 10.3846C19.9797 10.2627 20.0058 10.132 20.0058 10C20.0058 9.86799 19.9797 9.73728 19.9289 9.61542C19.8781 9.49356 19.8037 9.38296 19.71 9.29L18.91 8.5Z" fill="#FF6666"/>
</svg>
