<svg width="207" height="80" viewBox="0 0 207 80" fill="none" xmlns="http://www.w3.org/2000/svg">
<g clip-path="url(#clip0_61_365)">
<path d="M23.0673 51.2082V68.3588C23.0066 71.3891 21.7651 74.2749 19.6091 76.3964C17.4532 78.518 14.5547 79.7063 11.536 79.7063C8.51722 79.7063 5.61877 78.518 3.46284 76.3964C1.3069 74.2749 0.0653273 71.3891 0.00463867 68.3588V51.7091C0.0108098 45.4368 2.49516 39.4232 6.91246 34.988C11.3298 30.5528 17.3191 28.0584 23.5661 28.0522H41.9296C42.4974 28.0523 43.0645 28.093 43.6265 28.1739C37.9756 28.7966 32.7524 31.4916 28.9585 35.7424C25.1645 39.9931 23.0667 45.5004 23.0673 51.2082Z" fill="#9EB384"/>
<g style="mix-blend-mode:overlay" opacity="0.4">
<path d="M31.1791 30.4675C27.9948 32.7821 25.3883 35.8063 23.5642 39.3026C21.7402 42.799 20.7483 46.6723 20.6663 50.6185V68.3541C20.6644 70.2809 20.0581 72.1581 18.9333 73.7193C17.8086 75.2805 16.2227 76.4462 14.4007 77.0511C15.742 76.2352 16.8512 75.086 17.6213 73.7143C18.3914 72.3426 18.7963 70.7947 18.7969 69.2201V51.4938C18.9601 44.1121 21.4449 37.4513 26.4472 32.8828C26.5793 32.7625 26.6719 32.6048 26.7129 32.4306C26.7538 32.2563 26.7411 32.0736 26.6764 31.9067C26.6118 31.7399 26.4982 31.5966 26.3507 31.4959C26.2032 31.3952 26.0288 31.3419 25.8504 31.3428H21.692C18.9891 31.3395 16.3109 31.8592 13.804 32.8735C16.8161 31.2955 20.1639 30.4732 23.5614 30.4769L31.1791 30.4675Z" fill="#1F1E21"/>
</g>
<g style="mix-blend-mode:overlay">
<path d="M43.5893 28.2394C37.9551 28.8501 32.7444 31.5296 28.9582 35.7631C25.1719 39.9967 23.0773 45.4856 23.0767 51.1755L23.1187 68.3962C23.0627 75.1975 18.2329 79.9766 11.4312 79.9766C11.2322 79.9766 11.0364 79.9766 10.8438 79.9766C17.0208 79.6911 22.149 74.5609 22.149 68.2745L22.0231 50.9555C22.0231 39.7636 29.4822 30.4113 39.9343 28.099H41.7152C42.343 28.0839 42.9707 28.1309 43.5893 28.2394Z" fill="white"/>
</g>
<path d="M53.454 39.6279C53.4519 41.9528 52.7526 44.2233 51.4471 46.1435C50.1416 48.0638 48.2904 49.5448 46.1347 50.3938C44.8875 50.8868 43.5634 51.1546 42.2233 51.1848H23.0674C23.0689 45.4793 25.1671 39.9749 28.9599 35.7263C32.7527 31.4776 37.9734 28.7834 43.6219 28.1599C44.3886 28.2762 45.1415 28.4707 45.869 28.7403L46.158 28.8526C48.3109 29.7058 50.1581 31.1899 51.4593 33.1117C52.7606 35.0335 53.4556 37.304 53.454 39.6279Z" fill="#435334"/>
<path opacity="0.3" d="M45.8689 28.7402C32.6243 29.3441 25.1978 38.6262 25.1978 51.2082H23.0906C23.0921 45.5027 25.1903 39.9983 28.9831 35.7497C32.7759 31.501 37.9966 28.8068 43.6451 28.1832C44.4031 28.2936 45.1481 28.4802 45.8689 28.7402Z" fill="#1F1E21"/>
<path d="M38.9413 0C28.4608 0.456006 18.5604 4.95714 11.305 12.5645C4.04971 20.1719 -0.000223957 30.2981 9.28872e-09 40.8308V23.6569C9.28873e-09 17.3827 2.48237 11.3655 6.90101 6.92895C11.3196 2.49242 17.3126 0 23.5615 0H38.9413Z" fill="#435334"/>
<path d="M63.8829 11.4212C63.8829 17.8667 59.5147 22.5522 52.284 23.1514H23.0582C18.7471 23.245 14.5363 24.4755 10.8483 26.7192C7.16037 28.9629 4.12501 32.1411 2.04679 35.9347C1.45513 37.0116 0.945524 38.132 0.522335 39.2862C0.48504 39.3798 0.452406 39.4687 0.419772 39.5623C0.382476 39.656 0.349843 39.7543 0.312547 39.8526C0.24728 40.0538 0.177351 40.2645 0.112083 40.4845L0.00952148 40.8215C0.0115955 30.2919 4.06131 20.1694 11.3144 12.5643C18.5675 4.95914 28.4643 0.45828 38.9415 0H52.1814C58.517 0 63.8783 5.05997 63.8829 11.4212Z" fill="#9EB384"/>
<g style="mix-blend-mode:overlay" opacity="0.4">
<path d="M61.4725 11.454C61.4988 13.4051 60.9038 15.3138 59.7742 16.9017C58.6446 18.4896 57.0396 19.6739 55.1928 20.282C55.8368 19.8882 56.4302 19.4166 56.9597 18.8777C57.8112 18.0168 58.4825 16.9934 58.934 15.868C59.3856 14.7425 59.6083 13.5378 59.5891 12.3246C59.5257 9.89632 58.5167 7.58977 56.7788 5.89992C55.0409 4.21008 52.7124 3.27161 50.2931 3.28592H37.1231C32.523 3.48546 27.9966 4.51777 23.762 6.33313C28.5124 3.97909 33.6998 2.64629 38.9926 2.41996H52.1812C54.5992 2.40565 56.9265 3.34363 58.6636 5.0326C60.4007 6.72157 61.4091 9.02693 61.4725 11.454Z" fill="#1F1E21"/>
</g>
<path opacity="0.3" d="M38.9411 0C19.5194 0.828506 3.9765 16.1723 0.601242 33.833C0.191371 36.1506 -0.00990584 38.5005 -0.000149998 40.8543V31.6611C1.73159 23.9469 5.59992 16.8813 11.1587 11.2794C16.7174 5.67743 23.7401 1.7673 31.4167 0H38.9411Z" fill="#1F1E21"/>
<g style="mix-blend-mode:overlay">
<path d="M40.8436 0C29.9579 0.468083 17.0676 7.73741 12.042 13.1812C5.0118 20.7829 3.13303 27.336 1.5806 36.8287C1.17541 37.6241 0.821914 38.445 0.522336 39.2862C0.489702 39.3751 0.452406 39.4687 0.419772 39.5623C0.382476 39.656 0.349843 39.7543 0.312547 39.8526C0.24728 40.0538 0.177351 40.2645 0.112083 40.4845C0.0794496 40.5921 0.0421552 40.7045 0.00952148 40.8215C0.00952148 40.227 0.00952148 39.6419 0.00952148 39.0568C0.458273 28.8375 4.70503 19.1581 11.912 11.928C19.1191 4.69783 28.763 0.441999 38.9415 0H40.8436Z" fill="white"/>
</g>
<path d="M56.5028 74.2988V33.8143C56.4359 32.4224 56.9049 31.0581 57.8128 30.0041C58.2536 29.5463 58.7817 29.1822 59.3655 28.9336C59.9494 28.685 60.5771 28.5568 61.2113 28.5568C61.8455 28.5568 62.4733 28.685 63.0571 28.9336C63.641 29.1822 64.1691 29.5463 64.6099 30.0041C65.5156 31.0593 65.9844 32.4228 65.9199 33.8143V74.2988C65.9851 75.6918 65.5163 77.057 64.6099 78.1136C64.1691 78.5714 63.641 78.9355 63.0571 79.1841C62.4733 79.4328 61.8455 79.5609 61.2113 79.5609C60.5771 79.5609 59.9494 79.4328 59.3655 79.1841C58.7817 78.9355 58.2536 78.5714 57.8128 78.1136C56.9042 77.0582 56.4351 75.6921 56.5028 74.2988Z" fill="#435334"/>
<path d="M71.2812 74.3081V49.1019C71.2142 47.7122 71.6816 46.3499 72.5866 45.2964C73.0274 44.8386 73.5555 44.4745 74.1393 44.2259C74.7232 43.9772 75.3509 43.8491 75.9851 43.8491C76.6193 43.8491 77.2471 43.9772 77.8309 44.2259C78.4148 44.4745 78.9429 44.8386 79.3837 45.2964C80.29 46.3494 80.7589 47.7117 80.6937 49.1019V74.3081C80.7589 75.6983 80.29 77.0606 79.3837 78.1136C78.9429 78.5714 78.4148 78.9355 77.8309 79.1841C77.2471 79.4328 76.6193 79.5609 75.9851 79.5609C75.3509 79.5609 74.7232 79.4328 74.1393 79.1841C73.5555 78.9355 73.0274 78.5714 72.5866 78.1136C71.6816 77.0601 71.2142 75.6978 71.2812 74.3081ZM71.5423 35.9722C71.5507 34.8911 71.9314 33.8463 72.6199 33.0152C73.3084 32.1841 74.2623 31.6179 75.3194 31.4127C76.3765 31.2075 77.4718 31.3761 78.4192 31.8898C79.3666 32.4034 80.1077 33.2305 80.5167 34.2305C80.9256 35.2305 80.9772 36.3419 80.6627 37.3758C80.3482 38.4097 79.687 39.3024 78.7913 39.9023C77.8956 40.5023 76.8207 40.7725 75.7492 40.667C74.6776 40.5615 73.6755 40.0868 72.9129 39.3236C72.4685 38.8887 72.1175 38.3669 71.8818 37.7905C71.6461 37.214 71.5305 36.5952 71.5423 35.9722Z" fill="#435334"/>
<path d="M113.117 49.364C113.112 50.4784 112.77 51.5651 112.138 52.4814C111.88 52.9306 111.508 53.3036 111.06 53.5632C110.613 53.8228 110.105 53.9598 109.588 53.9605C108.936 53.9605 107.472 53.5674 105.206 52.7763C104.223 52.3967 103.186 52.1755 102.134 52.121C100.967 52.0825 99.8094 52.3315 98.761 52.8464C97.7125 53.3614 96.8058 54.1264 96.12 55.0746C94.8147 56.8252 94.1604 59.0361 94.1573 61.7073C94.0879 64.0575 94.8016 66.3637 96.1853 68.2605C96.8576 69.2114 97.7507 69.9834 98.7873 70.5095C99.8239 71.0356 100.973 71.3 102.134 71.2796C103.173 71.2314 104.199 71.0214 105.174 70.6571C106.417 70.242 107.714 69.7927 109.066 69.309C109.6 69.3046 110.129 69.407 110.623 69.6101C111.117 69.8133 111.565 70.1132 111.942 70.4923C112.319 70.8713 112.618 71.3221 112.819 71.8181C113.021 72.3141 113.122 72.8455 113.117 73.3813C113.117 75.5251 111.637 77.2305 108.675 78.4974C106.442 79.4544 104.039 79.9465 101.612 79.9438C96.6391 79.9438 92.5863 78.1823 89.4534 74.6592C86.3206 71.1361 84.7511 66.8157 84.7449 61.698C84.6652 56.9694 86.3707 52.3857 89.5187 48.8678C91.0084 47.1214 92.8663 45.7294 94.9579 44.7927C97.0494 43.8561 99.3223 43.3981 101.612 43.4521C104.04 43.4205 106.455 43.828 108.74 44.6551C111.658 45.7379 113.117 47.3075 113.117 49.364Z" fill="#435334"/>
<path d="M117.197 74.2988V33.8143C117.131 32.4234 117.598 31.0601 118.502 30.0041C118.944 29.5468 119.472 29.1831 120.057 28.9348C120.641 28.6865 121.269 28.5585 121.903 28.5585C122.537 28.5585 123.165 28.6865 123.75 28.9348C124.334 29.1831 124.862 29.5468 125.304 30.0041C126.206 31.0629 126.673 32.427 126.609 33.819V55.9265L136.94 45.8206C137.539 45.2014 138.247 44.6997 139.029 44.3415C139.685 44.0335 140.398 43.8662 141.122 43.85C141.668 43.8444 142.209 43.9593 142.706 44.1866C143.203 44.4139 143.644 44.748 143.998 45.1653C144.745 45.9409 145.168 46.9746 145.178 48.0534C145.178 49.364 144.567 50.6325 143.346 51.8589L134.954 59.3482L145.938 72.3422C146.338 72.7503 146.639 73.2452 146.819 73.7886C147.011 74.336 147.11 74.9119 147.113 75.4924C147.126 76.0821 147.02 76.6684 146.802 77.2159C146.583 77.7635 146.257 78.2609 145.841 78.6782C145.426 79.0955 144.931 79.424 144.386 79.644C143.841 79.8639 143.257 79.9707 142.67 79.9579C141.231 79.9579 139.748 78.9952 138.222 77.0698L126.717 62.7605L126.586 74.3128C126.651 75.7021 126.184 77.0636 125.281 78.1183C124.839 78.5757 124.311 78.9393 123.726 79.1876C123.142 79.436 122.514 79.5639 121.88 79.5639C121.245 79.5639 120.617 79.436 120.033 79.1876C119.449 78.9393 118.92 78.5757 118.479 78.1183C117.581 77.0565 117.122 75.6897 117.197 74.2988Z" fill="url(#paint0_linear_61_365)"/>
<path d="M177.97 64.8575H157.966C158.066 65.8615 158.378 66.8328 158.879 67.7073C159.38 68.5818 160.06 69.3399 160.875 69.9315C162.628 71.1507 164.724 71.7725 166.856 71.7056C168.515 71.6735 170.146 71.2706 171.63 70.526C175.334 68.7754 177.274 67.9001 177.448 67.9001C177.967 67.9012 178.48 68.0128 178.954 68.2274C179.427 68.442 179.85 68.7548 180.194 69.1452C180.938 69.8895 181.36 70.8987 181.369 71.9536C181.369 73.9227 179.703 75.7498 176.371 77.4349C173.143 79.0944 169.569 79.9607 165.942 79.9625C160.711 79.9625 156.461 78.2556 153.192 74.8417C149.922 71.4278 148.289 67.0591 148.292 61.7354C148.202 56.9946 149.906 52.3959 153.061 48.8678C154.552 47.1213 156.411 45.7293 158.503 44.7926C160.595 43.856 162.869 43.3981 165.159 43.4521C169.995 43.4521 174.091 45.3338 177.448 49.0972C180.587 52.5984 182.156 56.4492 182.156 60.6494C182.156 63.4548 180.761 64.8575 177.97 64.8575ZM157.704 58.5524H172.739C172.578 56.5837 171.747 54.7307 170.385 53.3052C169.08 51.9884 167.338 51.3315 165.159 51.3346C164.222 51.3022 163.288 51.4632 162.416 51.8078C161.543 52.1524 160.751 52.6732 160.087 53.338C158.722 54.7513 157.881 56.5918 157.704 58.5524Z" fill="#9EB384"/>
<path d="M186.338 74.3081V48.5636C186.308 47.9186 186.422 47.2751 186.671 46.6799C186.92 46.0847 187.299 45.5529 187.779 45.1232C188.717 44.2964 189.929 43.8508 191.177 43.8734C192.353 43.813 193.518 44.1223 194.511 44.7581C195.34 45.3525 195.755 46.3683 195.755 47.8146C197.583 45.1903 199.805 43.8765 202.422 43.8734C203.019 43.8619 203.612 43.9693 204.167 44.1895C204.723 44.4096 205.229 44.7381 205.657 45.1559C206.552 46.0078 207 47.2436 207 48.8631C207 50.3516 206.15 51.4672 204.45 52.2099C203.401 52.6499 202.375 53.0618 201.378 53.4597C199.416 54.3772 198.13 55.1199 197.517 55.6878C196.943 56.1943 196.487 56.822 196.183 57.526C195.878 58.23 195.732 58.9929 195.755 59.7601V74.3315C195.82 75.7217 195.352 77.084 194.445 78.137C194.004 78.5948 193.476 78.9589 192.893 79.2075C192.309 79.4562 191.681 79.5843 191.047 79.5843C190.412 79.5843 189.785 79.4562 189.201 79.2075C188.617 78.9589 188.089 78.5948 187.648 78.137C186.736 77.078 186.267 75.7063 186.338 74.3081Z" fill="#9EB384"/>
</g>
<defs>
<linearGradient id="paint0_linear_61_365" x1="117.174" y1="54.2555" x2="147.113" y2="54.2555" gradientUnits="userSpaceOnUse">
<stop stop-color="#435334"/>
<stop offset="1" stop-color="#9EB384"/>
</linearGradient>
<clipPath id="clip0_61_365">
<rect width="207" height="80" fill="white"/>
</clipPath>
</defs>
</svg>
