<svg width="40" height="50" viewBox="0 0 40 50" fill="none" xmlns="http://www.w3.org/2000/svg">
<g id="OBJECTS">
<path id="Vector" d="M14.4468 31.9408V42.6286C14.4468 44.5446 13.6858 46.3821 12.3311 47.7369C10.9765 49.0917 9.13918 49.8528 7.22341 49.8528C5.30765 49.8528 3.47034 49.0917 2.11569 47.7369C0.761035 46.3821 0 44.5446 0 42.6286V32.2575C0.00419082 28.3454 1.55992 24.5948 4.32585 21.8286C7.09177 19.0624 10.842 17.5065 14.7536 17.5023H26.2517C26.6073 17.5019 26.9625 17.5277 27.3144 17.5795C23.7777 17.9685 20.5089 19.6491 18.1345 22.2991C15.7601 24.9492 14.447 28.3824 14.4468 31.9408Z" fill="#9EB384"/>
<g id="Vector_2" style="mix-blend-mode:overlay" opacity="0.4">
<path d="M19.5268 19.0085C17.5322 20.4527 15.8997 22.3398 14.7576 24.5216C13.6155 26.7034 12.9949 29.1204 12.9446 31.5825V42.6345C12.9432 43.8367 12.5633 45.0079 11.8589 45.982C11.1545 46.9561 10.1613 47.6837 9.02023 48.0616C9.86019 47.5522 10.5547 46.8349 11.0369 45.979C11.5191 45.123 11.7726 44.1573 11.773 43.1749V32.1229C11.876 27.5192 13.4295 23.3727 16.5642 20.5147C16.6466 20.4395 16.7042 20.3412 16.7295 20.2326C16.7549 20.1241 16.7468 20.0104 16.7063 19.9065C16.6659 19.8026 16.5949 19.7134 16.5028 19.6506C16.4106 19.5879 16.3017 19.5544 16.1902 19.5548H13.5858C11.8946 19.5498 10.2183 19.8704 8.64818 20.4989C10.5336 19.5132 12.6299 18.9997 14.7574 19.0026L19.5268 19.0085Z" fill="#1F1E21"/>
</g>
<g id="Vector_3" style="mix-blend-mode:overlay">
<path d="M27.2985 17.6191C23.7666 17.9991 20.5001 19.6721 18.1276 22.3161C15.755 24.96 14.4439 28.3882 14.4467 31.9407L14.4725 42.68C14.4408 46.9195 11.4149 49.9002 7.1501 49.9002C7.0274 49.9002 6.9047 49.9002 6.78398 49.9002C10.653 49.7221 13.8629 46.5237 13.8629 42.6108L13.7838 31.8062C13.7838 24.8294 18.4542 18.9946 24.9989 17.5557H26.115C26.5106 17.5387 26.9069 17.5599 27.2985 17.6191Z" fill="white"/>
</g>
<path id="Vector_4" d="M33.4692 24.7225C33.4703 26.6056 32.7354 28.4145 31.4213 29.7631C30.1072 31.1117 28.318 31.8932 26.4358 31.9407H14.4469C14.4469 28.383 15.7594 24.9503 18.1331 22.3003C20.5067 19.6503 23.7745 17.9694 27.3105 17.5795C27.7827 17.6504 28.2467 17.7677 28.6958 17.9298L28.8779 17.9991C30.2301 18.5285 31.3915 19.4532 32.2105 20.6525C33.0295 21.8519 33.4681 23.2702 33.4692 24.7225Z" fill="#435334"/>
<path id="Vector_5" opacity="0.3" d="M28.7196 17.9258C20.4255 18.3019 15.7768 24.0911 15.7768 31.9368H14.4568C14.4568 28.379 15.7694 24.9463 18.143 22.2963C20.5166 19.6463 23.7844 17.9654 27.3204 17.5755C27.7973 17.6455 28.266 17.7629 28.7196 17.9258Z" fill="#1F1E21"/>
<path id="Vector_6" d="M24.3854 0.00808316C17.8233 0.292225 11.6243 3.09936 7.08162 7.84388C2.53892 12.5884 0.0033696 18.9039 0.00390634 25.4728V14.7593C0.00443116 10.8463 1.55905 7.09378 4.32583 4.32708C7.0926 1.56039 10.8449 0.00610348 14.7575 0.00610352L24.3854 0.00808316Z" fill="#435334"/>
<path id="Vector_7" d="M40 7.13129C40 11.1511 37.267 14.0744 32.737 14.4544H14.443C11.7427 14.5113 9.10489 15.2777 6.79449 16.6767C4.4841 18.0758 2.58245 20.0581 1.28053 22.4248C0.909608 23.096 0.59071 23.7948 0.32664 24.5148C0.302892 24.5729 0.281123 24.6303 0.261332 24.687C0.237584 24.7464 0.215815 24.8078 0.196024 24.8691C0.152486 24.9958 0.110927 25.1244 0.0693675 25.265L0.00405955 25.4767C0.00250251 18.9071 2.5376 12.5906 7.0804 7.84528C11.6232 3.09991 17.8228 0.292228 24.3856 0.00805664H32.6776C36.6357 0.00805664 40 3.16294 40 7.13129Z" fill="#9EB384"/>
<g id="Vector_8" style="mix-blend-mode:overlay" opacity="0.4">
<path d="M38.4958 7.15292C38.5101 8.36809 38.1376 9.55631 37.4321 10.5458C36.7266 11.5353 35.7248 12.2747 34.5714 12.6571C34.9742 12.4107 35.3457 12.1163 35.6777 11.7803C36.2108 11.2429 36.6311 10.6044 36.9139 9.90212C37.1967 9.19989 37.3362 8.4482 37.3242 7.69126C37.2827 4.58388 34.6723 2.05443 31.5039 2.05443H23.2475C20.3673 2.17808 17.5332 2.8218 14.8822 3.95449C17.857 2.48691 21.105 1.65576 24.419 1.5141H32.6775C35.8439 1.5141 38.4542 4.04355 38.4958 7.15292Z" fill="#1F1E21"/>
</g>
<path id="Vector_9" opacity="0.3" d="M24.386 0.00791709C12.2289 0.524495 2.4822 10.102 0.380487 21.1104C0.125132 22.5477 -0.000712566 24.005 0.00447211 25.4647V19.7448C1.08785 14.9352 3.50823 10.5298 6.98658 7.0364C10.4649 3.54297 14.8596 1.10377 19.664 0L24.386 0.00791709Z" fill="#1F1E21"/>
<g id="Vector_10" style="mix-blend-mode:overlay">
<path d="M25.5789 0.00805664C18.7612 0.297024 10.6987 4.83539 7.54412 8.22778C3.14278 12.9601 1.96527 17.0472 0.987631 22.977C0.735667 23.4734 0.514908 23.985 0.32664 24.5089L0.261332 24.6811L0.196024 24.8632C0.152485 24.9899 0.110926 25.1185 0.0693668 25.259C0.0475976 25.3283 0.025828 25.3976 0.00405884 25.4708C0.00405884 25.1007 0.00406137 24.7365 0.0159355 24.3704C0.297769 17.998 2.95603 11.9623 7.46683 7.45287C11.9776 2.94343 18.0137 0.287332 24.3856 0.00805664H25.5789Z" fill="white"/>
</g>
</g>
</svg>
