<svg width="20" height="20" viewBox="0 0 20 20" fill="none" xmlns="http://www.w3.org/2000/svg">
<g id="mobile / 24 / Outline">
<path id="Vector" d="M10.5916 13.575L10.4666 13.475C10.4202 13.4435 10.3697 13.4182 10.3166 13.4L10.1666 13.3333C10.0315 13.3051 9.89143 13.3108 9.75906 13.3501C9.6267 13.3894 9.50616 13.4609 9.40829 13.5583C9.33468 13.6393 9.27549 13.7323 9.23329 13.8333C9.17023 13.9852 9.15349 14.1523 9.18517 14.3136C9.21686 14.4749 9.29556 14.6233 9.41137 14.74C9.52718 14.8567 9.67493 14.9365 9.83601 14.9694C9.99709 15.0024 10.1643 14.9869 10.3166 14.925C10.4162 14.8767 10.5087 14.815 10.5916 14.7417C10.7073 14.6245 10.7856 14.4757 10.8167 14.314C10.8479 14.1523 10.8304 13.9851 10.7666 13.8333C10.7251 13.737 10.6657 13.6493 10.5916 13.575ZM13.3333 1.66666H6.66663C6.00358 1.66666 5.3677 1.93005 4.89886 2.39889C4.43002 2.86773 4.16663 3.50362 4.16663 4.16666V15.8333C4.16663 16.4964 4.43002 17.1322 4.89886 17.6011C5.3677 18.0699 6.00358 18.3333 6.66663 18.3333H13.3333C13.9963 18.3333 14.6322 18.0699 15.1011 17.6011C15.5699 17.1322 15.8333 16.4964 15.8333 15.8333V4.16666C15.8333 3.50362 15.5699 2.86773 15.1011 2.39889C14.6322 1.93005 13.9963 1.66666 13.3333 1.66666ZM14.1666 15.8333C14.1666 16.0543 14.0788 16.2663 13.9225 16.4226C13.7663 16.5789 13.5543 16.6667 13.3333 16.6667H6.66663C6.44561 16.6667 6.23365 16.5789 6.07737 16.4226C5.92109 16.2663 5.83329 16.0543 5.83329 15.8333V4.16666C5.83329 3.94564 5.92109 3.73368 6.07737 3.5774C6.23365 3.42112 6.44561 3.33332 6.66663 3.33332H13.3333C13.5543 3.33332 13.7663 3.42112 13.9225 3.5774C14.0788 3.73368 14.1666 3.94564 14.1666 4.16666V15.8333Z" fill="#CEDEBD"/>
</g>
</svg>
