<svg width="21" height="23" viewBox="0 0 21 23" fill="none" xmlns="http://www.w3.org/2000/svg">
<g id="lock,pad lock,safe,security,protected,padlock, / 24 / Outline">
<path id="Vector" d="M10.5 12.4583C10.2336 12.4549 9.97265 12.541 9.75226 12.7049C9.53187 12.8688 9.36263 13.1028 9.26731 13.3753C9.17199 13.6477 9.15518 13.9456 9.21913 14.2289C9.28308 14.5122 9.42473 14.7672 9.625 14.9596V16.2917C9.625 16.5458 9.71719 16.7896 9.88128 16.9693C10.0454 17.149 10.2679 17.25 10.5 17.25C10.7321 17.25 10.9546 17.149 11.1187 16.9693C11.2828 16.7896 11.375 16.5458 11.375 16.2917V14.9596C11.5753 14.7672 11.7169 14.5122 11.7809 14.2289C11.8448 13.9456 11.828 13.6477 11.7327 13.3753C11.6374 13.1028 11.4681 12.8688 11.2477 12.7049C11.0273 12.541 10.7664 12.4549 10.5 12.4583ZM14.875 8.62499V6.70832C14.875 5.43749 14.4141 4.21872 13.5936 3.3201C12.7731 2.42149 11.6603 1.91666 10.5 1.91666C9.33968 1.91666 8.22688 2.42149 7.40641 3.3201C6.58594 4.21872 6.125 5.43749 6.125 6.70832V8.62499C5.42881 8.62499 4.76113 8.92789 4.26884 9.46706C3.77656 10.0062 3.5 10.7375 3.5 11.5V18.2083C3.5 18.9708 3.77656 19.7021 4.26884 20.2413C4.76113 20.7804 5.42881 21.0833 6.125 21.0833H14.875C15.5712 21.0833 16.2389 20.7804 16.7312 20.2413C17.2234 19.7021 17.5 18.9708 17.5 18.2083V11.5C17.5 10.7375 17.2234 10.0062 16.7312 9.46706C16.2389 8.92789 15.5712 8.62499 14.875 8.62499ZM7.875 6.70832C7.875 5.94583 8.15156 5.21456 8.64384 4.67539C9.13613 4.13622 9.80381 3.83332 10.5 3.83332C11.1962 3.83332 11.8639 4.13622 12.3562 4.67539C12.8484 5.21456 13.125 5.94583 13.125 6.70832V8.62499H7.875V6.70832ZM15.75 18.2083C15.75 18.4625 15.6578 18.7062 15.4937 18.886C15.3296 19.0657 15.1071 19.1667 14.875 19.1667H6.125C5.89294 19.1667 5.67038 19.0657 5.50628 18.886C5.34219 18.7062 5.25 18.4625 5.25 18.2083V11.5C5.25 11.2458 5.34219 11.0021 5.50628 10.8223C5.67038 10.6426 5.89294 10.5417 6.125 10.5417H14.875C15.1071 10.5417 15.3296 10.6426 15.4937 10.8223C15.6578 11.0021 15.75 11.2458 15.75 11.5V18.2083Z" fill="#CEDEBD"/>
</g>
</svg>
