<svg width="20" height="7" viewBox="0 0 20 7" fill="none" xmlns="http://www.w3.org/2000/svg">
<path id="Vector" d="M19 0C18.7348 0 18.4804 0.106978 18.2929 0.297399C18.1054 0.487821 18 0.746088 18 1.01538V4.06154H2V1.01538C2 0.746088 1.89464 0.487821 1.70711 0.297399C1.51957 0.106978 1.26522 0 1 0C0.734784 0 0.48043 0.106978 0.292893 0.297399C0.105357 0.487821 0 0.746088 0 1.01538V5.07692C0 5.34622 0.105357 5.60449 0.292893 5.79491C0.48043 5.98533 0.734784 6.09231 1 6.09231H19C19.2652 6.09231 19.5196 5.98533 19.7071 5.79491C19.8946 5.60449 20 5.34622 20 5.07692V1.01538C20 0.746088 19.8946 0.487821 19.7071 0.297399C19.5196 0.106978 19.2652 0 19 0Z" fill="black"/>
</svg>
